<?xml version="1.0" encoding="UTF-8"?>
<svg width="1427px" height="384px" viewBox="0 0 1427 384" version="1.1" xmlns="http://www.w3.org/2000/svg" xmlns:xlink="http://www.w3.org/1999/xlink">
    <title>Fill-1</title>
    <g id="Page-1" stroke="none" stroke-width="1" fill="none" fill-rule="evenodd">
        <path d="M1278.393,0.034 L1317.483,100.885 L1360.993,0.034 L1427.003,0.034 L1348.723,181.458 L1427.003,383.349 L1426.903,383.388 C1404.123,380.137 1381.303,377.067 1358.423,374.125 L1358.423,374.125 L1314.493,260.813 L1270.133,363.604 C1249.113,361.284 1228.073,359.088 1206.973,357.03 L1206.973,357.03 L1283.243,180.241 L1213.373,0.034 L1278.393,0.034 Z M1162.153,0.034 L1162.153,352.842 C1142.143,351.062 1122.113,349.415 1102.053,347.88 L1102.053,347.88 L1102.053,0.034 L1162.153,0.034 Z M949.453,0 L949.453,279.28 C983.903,280.884 1018.253,282.821 1052.513,285.106 L1052.513,285.106 L1052.513,344.315 C998.353,340.704 943.973,337.949 889.363,336.07 L889.363,336.07 L889.363,0 L949.453,0 Z M683.09,333.133 L743.183,333.12 L743.183,196.416 L824.643,196.416 L824.643,137.207 L743.183,137.207 L743.183,59.779 L850.843,59.779 L850.843,0.037 L683.09,0.037 L683.09,333.133 Z M57.11,0.034 L135.375,216.979 L135.375,0.034 L195.467,0.034 L195.467,359.449 C176.635571,361.386143 157.835735,363.429082 139.064971,365.571519 L129.682,366.651 L60.091,166.74 L60.091,375.211 C42.889,377.451571 25.7156531,379.773694 8.57032945,382.183665 L0,383.396 L0,0.034 L57.11,0.034 Z M388.701168,0 L449,346.718186 L391.549025,351.27549 L378.995755,296.709729 L306.205159,296.709729 L295.611085,351.27549 L241,357 L301.891643,0 L388.701168,0 Z M341.5,64 L313,247 L370,247 L341.5,64 Z M644.565,0.034 L644.565,59.775 L581.675,59.775 L581.675,334.751 C561.617,335.276 541.58,335.898 521.584,336.653 L521.584,336.653 L521.584,59.775 L458.691,59.775 L458.691,0.034 L644.565,0.034 Z" id="Fill-1" fill="#D8232A" fill-rule="nonzero"></path>
    </g>
</svg>