<?xml version="1.0" encoding="UTF-8"?>
<svg width="16px" height="16px" viewBox="0 0 16 16" version="1.1" xmlns="http://www.w3.org/2000/svg" xmlns:xlink="http://www.w3.org/1999/xlink">
    <title>icon</title>
    <g id="Style-guide" stroke="none" stroke-width="1" fill="none" fill-rule="evenodd">
        <g id="icon" fill="#4D4D4D">
            <path d="M9,1 L9,0 L7,0 L7,1 L7,3 L7,4 L9,4 L9,3 L9,1 Z M9,13 L9,12 L7,12 L7,13 L7,15 L7,16 L9,16 L9,15 L9,13 Z M0,7 L0,9 L1,9 L3,9 L4,9 L4,7 L3,7 L1,7 L0,7 Z M13,7 L12,7 L12,9 L13,9 L15,9 L16,9 L16,7 L15,7 L13,7 Z M3.05,1.6375 L1.6375,3.05 L2.34375,3.75625 L3.759375,5.171875 L4.465625,5.878125 L5.88125,4.4625 L5.175,3.75625 L3.75625,2.34375 L3.05,1.6375 Z M12.24375,10.828125 L11.5375,10.121875 L10.121875,11.5375 L10.828125,12.24375 L12.24375,13.65625 L12.95,14.3625 L14.365625,12.946875 L13.65625,12.24375 L12.240625,10.828125 L12.24375,10.828125 Z M1.6375,12.95 L3.053125,14.365625 L3.75625,13.65625 L5.171875,12.240625 L5.878125,11.534375 L4.4625,10.11875 L3.75625,10.825 L2.34375,12.24375 L1.6375,12.95 Z M10.828125,3.75625 L10.121875,4.4625 L11.5375,5.878125 L12.24375,5.171875 L13.65625,3.75625 L14.3625,3.05 L12.95,1.634375 L12.24375,2.34375 L10.828125,3.759375 L10.828125,3.75625 Z" id="Shape"></path>
        </g>
    </g>
</svg>