<?xml version="1.0" encoding="UTF-8"?>
<svg width="16px" height="13px" viewBox="0 0 16 13" version="1.1" xmlns="http://www.w3.org/2000/svg" xmlns:xlink="http://www.w3.org/1999/xlink">
    <title>icon copy</title>
    <g id="Style-guide" stroke="none" stroke-width="1" fill="none" fill-rule="evenodd">
        <g id="Group" transform="translate(-100.000000, -2.000000)" fill="#C43F39">
            <g id="icon-copy" transform="translate(100.000000, 2.000000)">
                <path d="M0.735114862,0 L1.21018909,0.367557431 L1.76277543,0.797624629 L14.4022504,0.797624629 L14.4022504,10.6091577 L15.5249258,11.481794 L16,11.8493515 L15.2648851,12.7969995 L14.7898109,12.4294421 L0.47507423,1.3152055 L0,0.94764807 L0.735114862,0 Z M7.94874199,5.59837475 L10.4016253,5.59837475 L10.4016253,2.39787467 L5.60087514,2.39787467 L5.60087514,3.77558994 L7.94874199,5.59837475 Z M6.0934521,7.19862479 L5.60087514,7.19862479 L5.60087514,10.3991249 L10.156587,10.3991249 L12.1869042,11.9993749 L1.60025004,11.9993749 L1.60025004,3.65807157 L4.06313486,5.59837475 L2.80043757,5.59837475 L2.80043757,7.19862479 L4.40068761,7.19862479 L4.40068761,5.86591655 L6.0934521,7.19862479 Z M4.40068761,8.79887482 L2.80043757,8.79887482 L2.80043757,10.3991249 L4.40068761,10.3991249 L4.40068761,8.79887482 Z M13.2020628,5.59837475 L11.6018128,5.59837475 L11.6018128,7.19862479 L13.2020628,7.19862479 L13.2020628,5.59837475 Z M11.6018128,2.39787467 L11.6018128,3.99812471 L13.2020628,3.99812471 L13.2020628,2.39787467 L11.6018128,2.39787467 Z" id="Shape"></path>
            </g>
        </g>
    </g>
</svg>