<?xml version="1.0" encoding="UTF-8"?>
<svg width="16px" height="16px" viewBox="0 0 16 16" version="1.1" xmlns="http://www.w3.org/2000/svg" xmlns:xlink="http://www.w3.org/1999/xlink">
    <title>icon copy</title>
    <g id="Style-guide" stroke="none" stroke-width="1" fill="none" fill-rule="evenodd">
        <g id="Group" transform="translate(-100.000000, 0.000000)" fill="#C43F39">
            <g id="icon-copy" transform="translate(100.000000, 0.000000)">
                <path d="M8,16 C12.41875,16 16,12.41875 16,8 C16,3.58125 12.41875,0 8,0 C3.58125,0 0,3.58125 0,8 C0,12.41875 3.58125,16 8,16 Z M8.75,4 L8.75,4.75 L8.75,8.25 L8.75,9 L7.25,9 L7.25,8.25 L7.25,4.75 L7.25,4 L8.75,4 Z M7.25,11.5 L7.25,10 L8.75,10 L8.75,11.5 L7.25,11.5 Z" id="Shape"></path>
            </g>
        </g>
    </g>
</svg>